<svg width="156" height="40" viewBox="0 0 156 40" fill="none" xmlns="http://www.w3.org/2000/svg">
<path d="M63.8067 39.5813H60.9679V26.1635H55.8848V23.5537H68.8905V26.1635H63.8067V39.5813Z" fill="#2C2F47"/>
<path d="M83.7276 26.0949H74.6598V30.2164H82.6971V32.7579H74.6598V37.0397H83.8419V39.5812H71.8667V23.5533H83.7276V26.0949Z" fill="#2C2F47"/>
<path d="M89.7265 28.5673C89.8337 28.7964 90.0287 29.0106 90.3117 29.2088C90.5948 29.4073 90.985 29.5906 91.4826 29.7586C91.9798 29.9263 92.6112 30.1018 93.3761 30.2851C94.2178 30.4992 94.9639 30.7355 95.6142 30.9948C96.2651 31.2548 96.8039 31.5713 97.2325 31.945C97.6614 32.3193 97.9867 32.7548 98.208 33.2504C98.43 33.7466 98.5411 34.3309 98.5411 35.0019C98.5411 35.7659 98.4014 36.4448 98.1213 37.0401C97.8411 37.6354 97.4509 38.1388 96.9517 38.5512C96.4519 38.9636 95.8517 39.2765 95.1508 39.49C94.4495 39.7035 93.6796 39.8107 92.8399 39.8107C91.6038 39.8107 90.4203 39.6008 89.2907 39.1806C88.1608 38.7611 87.1157 38.1164 86.1538 37.2458L87.8488 35.2307C88.6271 35.9031 89.4129 36.4181 90.2071 36.7762C91.0006 37.135 91.9014 37.3147 92.9085 37.3147C93.7788 37.3147 94.469 37.1314 94.9805 36.7649C95.492 36.3983 95.748 35.9027 95.748 35.2765C95.748 34.9866 95.698 34.7273 95.5986 34.4982C95.4991 34.2691 95.3155 34.0592 95.0477 33.8681C94.7793 33.6777 94.4124 33.4986 93.9458 33.3303C93.4788 33.1626 92.8708 32.9871 92.1205 32.8039C91.2632 32.6053 90.5021 32.384 89.8366 32.14C89.1708 31.8956 88.6122 31.5901 88.1608 31.2239C87.7091 30.8573 87.3646 30.4147 87.1274 29.8961C86.8905 29.3774 86.7722 28.7438 86.7722 27.9954C86.7722 27.2935 86.9077 26.6562 87.1804 26.0839C87.4533 25.511 87.8277 25.019 88.3047 24.6066C88.7818 24.1943 89.3554 23.8778 90.0251 23.6565C90.6955 23.4352 91.4273 23.3243 92.2215 23.3243C93.3966 23.3243 94.4537 23.4956 95.3925 23.8394C96.3314 24.1826 97.213 24.683 98.0374 25.3391L96.5257 27.4683C95.7932 26.934 95.0682 26.5259 94.3507 26.2435C93.6332 25.9611 92.9079 25.8201 92.1757 25.8201C91.3513 25.8201 90.7105 26.0069 90.2523 26.381C89.7941 26.755 89.5653 27.209 89.5653 27.7432C89.5653 28.0639 89.6189 28.3389 89.7258 28.5673H89.7265Z" fill="#2C2F47"/>
<path d="M108.296 39.5813H105.457V26.1635H100.374V23.5537H113.379V26.1635H108.296V39.5813Z" fill="#2C2F47"/>
<path d="M119.31 23.5533V39.5812H116.516V23.5533H119.31Z" fill="#2C2F47"/>
<path d="M134.788 23.5533H137.581V39.5812H135.227L126.407 28.1782V39.5812H123.614V23.5533H126.219L134.788 34.6356V23.5533H134.788Z" fill="#2C2F47"/>
<path d="M154.673 38.3217C154.193 38.6275 153.674 38.894 153.117 39.1231C152.559 39.3522 151.96 39.5319 151.319 39.6615C150.678 39.7906 150.006 39.8562 149.304 39.8562C148.052 39.8562 146.915 39.6463 145.892 39.2261C144.87 38.8066 143.996 38.2265 143.27 37.4859C142.545 36.746 141.984 35.8718 141.587 34.8647C141.191 33.857 140.992 32.7658 140.992 31.5904C140.992 30.4605 141.195 29.392 141.599 28.385C142.003 27.3773 142.572 26.4956 143.305 25.7401C144.038 24.9845 144.911 24.3853 145.927 23.9427C146.942 23.5001 148.052 23.2788 149.258 23.2788C149.96 23.2788 150.597 23.3282 151.17 23.4276C151.743 23.5271 152.273 23.6681 152.761 23.8511C153.249 24.034 153.712 24.2599 154.147 24.5263C154.581 24.7941 155.005 25.1028 155.417 25.4538L153.631 27.583C153.325 27.3236 153.013 27.0874 152.692 26.8732C152.372 26.6597 152.036 26.4807 151.685 26.3354C151.334 26.1902 150.948 26.0761 150.529 25.9923C150.109 25.9084 149.647 25.8662 149.143 25.8662C148.411 25.8662 147.727 26.0157 147.094 26.3136C146.461 26.6123 145.911 27.0211 145.446 27.541C144.98 28.0616 144.614 28.6654 144.346 29.3537C144.079 30.042 143.946 30.7761 143.946 31.556C143.946 32.3824 144.075 33.1467 144.335 33.8505C144.594 34.5544 144.964 35.1618 145.446 35.6739C145.926 36.1867 146.499 36.5884 147.163 36.8786C147.827 37.1694 148.571 37.3147 149.396 37.3147C150.158 37.3147 150.872 37.2035 151.536 36.9809C152.2 36.7583 152.777 36.4626 153.265 36.0944V33.0787H149.167V30.6282H155.99V37.3605C155.593 37.6962 155.154 38.0166 154.673 38.3217Z" fill="#2C2F47"/>
<path d="M63.784 14.7417H63.6923L58.6778 7.23141V18.6802H55.8848V2.65234H58.8845L63.7616 10.2312L68.6386 2.65234H71.6377V18.6802H68.8447V7.18559L63.784 14.7417Z" fill="#2C2F47"/>
<path d="M95.2217 2.65234H98.0147V16.1387H106.441V18.6802H95.2217V2.65234Z" fill="#2C2F47"/>
<path d="M123.271 13.8142C122.859 14.7988 122.275 15.6503 121.519 16.3678C120.763 17.0853 119.863 17.6498 118.818 18.0621C117.772 18.4745 116.623 18.6802 115.371 18.6802H109.395V2.65234H115.371C116.623 2.65234 117.772 2.85447 118.818 3.25905C119.863 3.66363 120.763 4.22452 121.519 4.94139C122.275 5.65956 122.859 6.50674 123.271 7.48359C123.683 8.46043 123.889 9.51331 123.889 10.6432C123.889 11.7731 123.683 12.8296 123.271 13.8142ZM120.533 8.49325C120.265 7.82642 119.891 7.24799 119.409 6.75729C118.926 6.26692 118.341 5.88379 117.653 5.60789C116.963 5.332 116.198 5.19389 115.357 5.19389H112.188V16.1387H115.357C116.198 16.1387 116.963 16.0048 117.653 15.7364C118.341 15.4679 118.926 15.0926 119.409 14.6097C119.891 14.1265 120.265 13.552 120.533 12.8851C120.801 12.2183 120.935 11.4865 120.935 10.6894C120.935 9.89222 120.801 9.16007 120.533 8.49325Z" fill="#2C2F47"/>
<path d="M85.1189 2.8136H83.9656C83.9656 2.8136 84.7296 4.74844 83.9656 7.07583H85.1189C84.2356 4.75006 85.1189 2.8136 85.1189 2.8136Z" fill="#53AE32"/>
<path d="M85.5617 0.434802C86.1414 1.01454 86.1414 1.95433 85.5617 2.53407C84.9819 3.1138 84.0421 3.1138 83.4624 2.53407C82.8827 1.95433 82.8827 1.01454 83.4624 0.434802C84.0421 -0.144934 84.9819 -0.144934 85.5617 0.434802Z" fill="#5B9046"/>
<path d="M85.392 0.621086C85.8736 1.10268 85.8736 1.88292 85.392 2.36452C84.9107 2.84579 84.1301 2.84579 83.6486 2.36452C83.1673 1.88325 83.1673 1.10268 83.6486 0.621086C84.1298 0.139814 84.9104 0.139814 85.392 0.621086Z" fill="#45AC43"/>
<path d="M84.9848 1.01187C85.2457 1.27282 85.2457 1.69625 84.9848 1.95719C84.7238 2.21814 84.3004 2.21814 84.0395 1.95719C83.7785 1.69625 83.7785 1.27282 84.0395 1.01187C84.3004 0.750926 84.7238 0.750926 84.9848 1.01187Z" fill="#5B9046"/>
<path d="M93.8751 11.5473V10.1272C93.8751 10.1272 91.4931 11.068 88.6279 10.1272V11.5473C91.4912 10.46 93.8751 11.5473 93.8751 11.5473Z" fill="#53AE32"/>
<path d="M96.8032 12.0922C96.0896 12.8058 94.9324 12.8058 94.2188 12.0922C93.5052 11.3786 93.5052 10.2214 94.2188 9.50775C94.9324 8.79413 96.0896 8.79413 96.8032 9.50775C97.5169 10.2214 97.5169 11.3786 96.8032 12.0922Z" fill="#5B9046"/>
<path d="M96.5743 11.8831C95.9816 12.4758 95.0207 12.4758 94.4279 11.8831C93.8352 11.2903 93.8352 10.3294 94.4279 9.73667C95.0207 9.14393 95.9816 9.14393 96.5743 9.73667C97.1671 10.3294 97.1671 11.2903 96.5743 11.8831Z" fill="#45AC43"/>
<path d="M96.0931 11.382C95.7717 11.7034 95.2504 11.7034 94.929 11.382C94.6076 11.0606 94.6076 10.5394 94.929 10.218C95.2504 9.89658 95.7717 9.89658 96.0931 10.218C96.4144 10.5394 96.4144 11.0606 96.0931 11.382Z" fill="#5B9046"/>
<path d="M91.8432 7.26175C91.4106 7.08465 90.9167 7.29133 90.7393 7.72386C90.6925 7.83824 90.6739 7.95685 90.6778 8.07319C90.5339 8.20318 89.7215 8.8882 88.4619 8.98797C88.486 9.04516 88.6917 9.53715 88.7157 9.59435C89.6747 8.68412 90.7929 8.65585 90.9398 8.65617C91.0139 8.72669 91.1006 8.78648 91.201 8.82776C91.6336 9.00486 92.1275 8.79818 92.3049 8.36566C92.482 7.93313 92.2757 7.43918 91.8432 7.26175Z" fill="#5B9046"/>
<path d="M75.8533 8.22225C76.0866 8.77957 76.7275 9.04214 77.2848 8.80914C77.4323 8.74739 77.5574 8.65576 77.6601 8.54592C77.9103 8.55859 79.2794 8.67525 80.5221 9.73528C80.5526 9.66119 80.8139 9.02329 80.8441 8.94887C79.1354 8.90435 78.0874 7.90801 77.9532 7.77348C77.95 7.64122 77.9253 7.50733 77.871 7.37767C77.6377 6.82036 76.9969 6.55779 76.4395 6.79079C75.8822 7.02411 75.6197 7.66494 75.853 8.22225H75.8533Z" fill="#5B9046"/>
<path d="M81.4555 4.57511C81.3226 4.89942 81.4776 5.26989 81.802 5.4028C81.8877 5.43789 81.9768 5.45186 82.0639 5.44861C82.1614 5.5565 82.6748 6.16581 82.7499 7.11048C82.7928 7.09261 83.1616 6.93792 83.2045 6.92005C82.5221 6.2009 82.5006 5.3625 82.501 5.25233C82.5539 5.19676 82.5988 5.13177 82.6296 5.05638C82.7626 4.73207 82.6075 4.36161 82.2832 4.2287C81.9589 4.09579 81.5885 4.25112 81.4555 4.57511Z" fill="#5B9046"/>
<path d="M87.2144 2.86983C86.7387 3.06903 86.5148 3.61594 86.714 4.09136C86.7666 4.21712 86.8449 4.32404 86.9389 4.41145C86.9281 4.62495 86.8287 5.7932 85.9243 6.85389C85.9877 6.87988 86.532 7.10281 86.5954 7.1288C86.6331 5.67069 87.4835 4.77639 87.5982 4.662C87.7113 4.6594 87.8254 4.63796 87.9358 4.59181C88.4116 4.39261 88.6355 3.84569 88.4363 3.37027C88.2371 2.89485 87.6902 2.67062 87.2144 2.86983Z" fill="#5B9046"/>
<path d="M93.4399 13.6911C93.2066 13.1338 92.5658 12.8712 92.0085 13.1045C91.8609 13.1663 91.7358 13.2579 91.6331 13.3678C91.3829 13.3551 90.0138 13.2384 88.7708 12.1787C88.7403 12.2531 88.479 12.891 88.4485 12.9651C90.1575 13.0096 91.2055 14.0057 91.3394 14.1402C91.3426 14.2725 91.3673 14.4063 91.4216 14.536C91.6549 15.0933 92.2957 15.3559 92.853 15.1226C93.4104 14.8892 93.6729 14.2481 93.4396 13.6908L93.4399 13.6911Z" fill="#5B9046"/>
<path d="M88.3255 18.1277C88.5013 17.6988 88.2959 17.2084 87.8669 17.0326C87.7532 16.9861 87.6356 16.9679 87.5205 16.9718C87.3915 16.8292 86.712 16.0229 86.6126 14.7734C86.5557 14.7972 86.0676 15.0016 86.0107 15.0253C86.9141 15.9768 86.9421 17.0862 86.9418 17.2318C86.8716 17.3052 86.8124 17.3913 86.7718 17.4911C86.596 17.9201 86.8014 18.4104 87.2303 18.5862C87.6593 18.762 88.1493 18.5567 88.3255 18.1277Z" fill="#5B9046"/>
<path d="M81.6968 20.659C82.3591 20.3818 82.6713 19.6201 82.3942 18.9575C82.3207 18.782 82.2118 18.6332 82.0812 18.5113C82.0962 18.214 82.2349 16.5865 83.4945 15.1096C83.4061 15.0735 82.6479 14.7628 82.5596 14.7264C82.5069 16.7575 81.3227 18.0031 81.1629 18.1623C81.0056 18.1662 80.8463 18.1958 80.6926 18.2601C80.0304 18.5373 79.7181 19.299 79.9956 19.9616C80.2728 20.6239 81.0345 20.9362 81.6968 20.659Z" fill="#5B9046"/>
<path d="M77.7491 14.4662C78.142 14.6271 78.5908 14.4393 78.7517 14.0467C78.7942 13.9427 78.8108 13.8351 78.8072 13.7295C78.9379 13.6116 79.6759 12.9893 80.8197 12.8986C80.798 12.8466 80.6108 12.3998 80.589 12.3478C79.7181 13.1745 78.7026 13.2002 78.5693 13.1998C78.5021 13.1358 78.4231 13.0815 78.3318 13.0442C77.9389 12.8833 77.4901 13.0712 77.3293 13.4637C77.1684 13.8566 77.3563 14.3054 77.7491 14.4662Z" fill="#5B9046"/>
<path d="M84.0969 20.5803H85.6298C85.6298 20.5803 84.6143 18.0089 85.6298 14.9159H84.0969C85.2707 18.007 84.0969 20.5803 84.0969 20.5803Z" fill="#53AE32"/>
<path d="M83.5085 23.7415C82.738 22.9711 82.738 21.7219 83.5085 20.9514C84.279 20.1809 85.5282 20.1809 86.2987 20.9514C87.0692 21.7219 87.0692 22.9711 86.2987 23.7415C85.5282 24.512 84.279 24.512 83.5085 23.7415Z" fill="#5B9046"/>
<path d="M83.7343 23.494C83.0944 22.8542 83.0944 21.8169 83.7343 21.177C84.3741 20.5372 85.4114 20.5372 86.0513 21.177C86.6911 21.8169 86.6911 22.8542 86.0513 23.494C85.4114 24.1339 84.3741 24.1339 83.7343 23.494Z" fill="#45AC43"/>
<path d="M84.2754 22.9747C83.9284 22.6277 83.9284 22.0652 84.2754 21.7184C84.6225 21.3717 85.185 21.3714 85.5317 21.7184C85.8788 22.0655 85.8788 22.628 85.5317 22.9747C85.1847 23.3218 84.6222 23.3218 84.2754 22.9747Z" fill="#5B9046"/>
<path d="M75.5879 10.4508V11.8579C75.5879 11.8579 77.9484 10.9259 80.788 11.8579V10.4508C77.9507 11.5284 75.5879 10.4508 75.5879 10.4508Z" fill="#53AE32"/>
<path d="M73.9665 13.0025C74.9667 13.0025 75.7776 12.1917 75.7776 11.1915C75.7776 10.1913 74.9667 9.38049 73.9665 9.38049C72.9663 9.38049 72.1555 10.1913 72.1555 11.1915C72.1555 12.1917 72.9663 13.0025 73.9665 13.0025Z" fill="#5B9046"/>
<path d="M72.9131 10.1179C73.5003 9.53069 74.4527 9.53069 75.04 10.1179C75.6272 10.7051 75.6272 11.6576 75.04 12.2448C74.4527 12.832 73.5003 12.832 72.9131 12.2448C72.3259 11.6576 72.3259 10.7051 72.9131 10.1179Z" fill="#45AC43"/>
<path d="M73.9665 12.0072C74.417 12.0072 74.7822 11.642 74.7822 11.1915C74.7822 10.741 74.417 10.3759 73.9665 10.3759C73.5161 10.3759 73.1509 10.741 73.1509 11.1915C73.1509 11.642 73.5161 12.0072 73.9665 12.0072Z" fill="#5B9046"/>
<path d="M91.6579 4.90864L90.6323 3.88306C90.6323 3.88306 89.5912 6.28292 86.8423 7.67311C86.9391 7.76995 87.771 8.60186 87.8679 8.6987C89.1505 5.84519 91.6579 4.90864 91.6579 4.90864Z" fill="#53AE32"/>
<path d="M77.8434 3.13049L76.6147 4.35918C76.6147 4.35918 79.4897 5.60639 81.1551 8.89958L82.3838 7.67089C78.9655 6.13413 77.8434 3.13049 77.8434 3.13049Z" fill="#53AE32"/>
<path d="M82.1829 14.2072L81.3337 13.358C81.3337 13.358 80.4716 15.3452 78.1956 16.4962C78.2758 16.5765 78.9644 17.2651 79.0447 17.3453C80.1067 14.9829 82.1829 14.2072 82.1829 14.2072Z" fill="#53AE32"/>
<path d="M84.69 15.4011C87.1464 15.4011 89.1378 13.4097 89.1378 10.9533C89.1378 8.49683 87.1464 6.50549 84.69 6.50549C82.2335 6.50549 80.2422 8.49683 80.2422 10.9533C80.2422 13.4097 82.2335 15.4011 84.69 15.4011Z" fill="#5B9046"/>
<path d="M84.6901 14.6816C86.73 14.6816 88.3837 13.028 88.3837 10.9881C88.3837 8.94821 86.73 7.29456 84.6901 7.29456C82.6502 7.29456 80.9966 8.94821 80.9966 10.9881C80.9966 13.028 82.6502 14.6816 84.6901 14.6816Z" fill="#45AC43"/>
<path d="M84.6901 12.9562C85.7964 12.9562 86.6932 12.0594 86.6932 10.9532C86.6932 9.84688 85.7964 8.95007 84.6901 8.95007C83.5838 8.95007 82.687 9.84688 82.687 10.9532C82.687 12.0594 83.5838 12.9562 84.6901 12.9562Z" fill="#5B9046"/>
<path d="M94.1667 3.18735C94.1667 4.21846 93.3309 5.05427 92.2998 5.05427C91.2687 5.05427 90.4329 4.21846 90.4329 3.18735C90.4329 2.15624 91.2687 1.32043 92.2998 1.32043C93.3309 1.32043 94.1667 2.15624 94.1667 3.18735Z" fill="#5B9046"/>
<path d="M92.3002 4.75205C93.1564 4.75205 93.8506 4.05791 93.8506 3.20165C93.8506 2.34538 93.1564 1.65125 92.3002 1.65125C91.4439 1.65125 90.7498 2.34538 90.7498 3.20165C90.7498 4.05791 91.4439 4.75205 92.3002 4.75205Z" fill="#45AC43"/>
<path d="M93.1408 3.18724C93.1408 3.65161 92.7645 4.02792 92.3002 4.02792C91.8358 4.02792 91.4595 3.65161 91.4595 3.18724C91.4595 2.72287 91.8358 2.34656 92.3002 2.34656C92.7645 2.34656 93.1408 2.72287 93.1408 3.18724Z" fill="#5B9046"/>
<path d="M90.0475 16.9797L90.8274 16.1998C90.8274 16.1998 89.0027 15.4082 87.9459 13.318C87.8722 13.3918 87.2398 14.0241 87.166 14.0979C89.3355 15.0731 90.0475 16.9797 90.0475 16.9797Z" fill="#53AE32"/>
<path d="M75.8143 4.6464C77.0483 4.6464 78.0487 3.646 78.0487 2.41194C78.0487 1.17789 77.0483 0.17749 75.8143 0.17749C74.5802 0.17749 73.5798 1.17789 73.5798 2.41194C73.5798 3.646 74.5802 4.6464 75.8143 4.6464Z" fill="#5B9046"/>
<path d="M77.6698 2.42952C77.6698 3.45446 76.8389 4.28506 75.8143 4.28506C74.7897 4.28506 73.9587 3.45413 73.9587 2.42952C73.9587 1.40491 74.7897 0.573975 75.8143 0.573975C76.8389 0.573975 77.6698 1.40491 77.6698 2.42952Z" fill="#45AC43"/>
<path d="M75.8143 3.41822C76.3701 3.41822 76.8207 2.96764 76.8207 2.41181C76.8207 1.85598 76.3701 1.4054 75.8143 1.4054C75.2584 1.4054 74.8079 1.85598 74.8079 2.41181C74.8079 2.96764 75.2584 3.41822 75.8143 3.41822Z" fill="#5B9046"/>
<path d="M77.5518 19.5684C78.4556 19.5684 79.1883 18.8358 79.1883 17.9319C79.1883 17.0281 78.4556 16.2954 77.5518 16.2954C76.648 16.2954 75.9153 17.0281 75.9153 17.9319C75.9153 18.8358 76.648 19.5684 77.5518 19.5684Z" fill="#5B9046"/>
<path d="M78.9109 17.9449C78.9109 18.6956 78.3025 19.3039 77.5519 19.3039C76.8012 19.3039 76.1929 18.6956 76.1929 17.9449C76.1929 17.1943 76.8012 16.5859 77.5519 16.5859C78.3025 16.5859 78.9109 17.1943 78.9109 17.9449Z" fill="#45AC43"/>
<path d="M78.289 17.9318C78.289 18.339 77.9591 18.6689 77.552 18.6689C77.1448 18.6689 76.8149 18.339 76.8149 17.9318C76.8149 17.5247 77.1448 17.1948 77.552 17.1948C77.9591 17.1948 78.289 17.5247 78.289 17.9318Z" fill="#5B9046"/>
<path d="M91.3186 18.8687C92.1026 18.8687 92.7381 18.2332 92.7381 17.4492C92.7381 16.6653 92.1026 16.0298 91.3186 16.0298C90.5347 16.0298 89.8992 16.6653 89.8992 17.4492C89.8992 18.2332 90.5347 18.8687 91.3186 18.8687Z" fill="#5B9046"/>
<path d="M92.4972 17.4604C92.4972 18.1113 91.9694 18.639 91.3185 18.639C90.6676 18.639 90.1399 18.1113 90.1399 17.4604C90.1399 16.8095 90.6676 16.2817 91.3185 16.2817C91.9694 16.2817 92.4972 16.8095 92.4972 17.4604Z" fill="#45AC43"/>
<path d="M91.3186 18.0886C91.6717 18.0886 91.9579 17.8024 91.9579 17.4494C91.9579 17.0964 91.6717 16.8102 91.3186 16.8102C90.9656 16.8102 90.6794 17.0964 90.6794 17.4494C90.6794 17.8024 90.9656 18.0886 91.3186 18.0886Z" fill="#5B9046"/>
<path d="M30.2936 26.31L30.7362 27.8771C30.8781 28.3798 30.7276 28.9232 30.3391 29.2721C27.7993 31.5542 24.644 33.2278 20.8735 34.292C17.5533 35.2294 14.5482 35.3581 11.8592 34.6769C9.16985 33.9966 6.82052 32.6755 4.8118 30.7147C2.80247 28.7543 1.41388 26.4117 0.644485 23.6873C-0.577329 19.3597 -0.0619436 15.2848 2.19095 11.4618C4.44384 7.64002 7.83317 5.08951 12.3595 3.81149C15.2531 2.99448 18.6437 2.79453 22.5312 3.21102C23.0902 3.27091 23.5564 3.66774 23.7091 4.20893L24.1323 5.70779C24.4069 6.68081 23.5767 7.61054 22.5794 7.44437C19.3845 6.91209 16.4298 7.02881 13.7143 7.79544C10.309 8.75679 7.78494 10.6298 6.14327 13.4146C4.50128 16.1992 4.13701 19.2092 5.05014 22.444C5.97157 25.7077 7.83562 28.077 10.6417 29.5516C13.448 31.0268 16.5754 31.2774 20.0231 30.3041C22.951 29.4773 25.6167 27.936 28.0201 25.6798C28.7751 24.9709 30.0123 25.3136 30.2936 26.31Z" fill="#45AC43"/>
<path d="M37.2627 4.49052L39.9219 3.73956C40.4431 3.59244 40.9459 4.02397 40.8793 4.56147L36.9411 36.3406C36.9036 36.6432 36.6886 36.8935 36.3953 36.9764C36.1038 37.0587 35.7915 36.9595 35.6007 36.7239L15.3938 11.7621C15.0516 11.3395 15.2531 10.7046 15.7768 10.5566L18.475 9.79488C18.7665 9.71257 19.0792 9.81208 19.2699 10.0477L32.6779 26.6337C33.0972 27.1524 33.9335 26.915 34.0183 26.2534L36.7175 5.12324C36.7559 4.82193 36.9706 4.57284 37.263 4.49022L37.2627 4.49052Z" fill="#45AC43"/>
</svg>
