<?xml version="1.0" encoding="UTF-8"?>
<svg id="Layer_1" xmlns="http://www.w3.org/2000/svg" width="156" height="40" version="1.1" viewBox="0 0 156 40">
  <!-- Generator: Adobe Illustrator 30.2.1, SVG Export Plug-In . SVG Version: 2.1.1 Build 1)  -->
  <defs>
    <style>
      .st0 {
        fill: #45ac43;
      }

      .st1 {
        fill: #53ae32;
      }

      .st2 {
        fill: #fff;
      }

      .st3 {
        fill: #5b9046;
      }
    </style>
  </defs>
  <path class="st2" d="M63.8,39.6h-2.8v-13.4h-5.1v-2.6h13v2.6h-5.1v13.4Z"/>
  <path class="st2" d="M83.7,26.1h-9.1v4.1h8v2.5h-8v4.3h9.2v2.5h-12v-16h11.9v2.5Z"/>
  <path class="st2" d="M89.7,28.6c.1.2.3.4.6.6.3.2.7.4,1.2.5.5.2,1.1.3,1.9.5.8.2,1.6.5,2.2.7.7.3,1.2.6,1.6,1,.4.4.8.8,1,1.3.2.5.3,1.1.3,1.8s-.1,1.4-.4,2c-.3.6-.7,1.1-1.2,1.5-.5.4-1.1.7-1.8.9-.7.2-1.5.3-2.3.3-1.2,0-2.4-.2-3.5-.6-1.1-.4-2.2-1.1-3.1-1.9l1.7-2c.8.7,1.6,1.2,2.4,1.5.8.4,1.7.5,2.7.5s1.6-.2,2.1-.5c.5-.4.8-.9.8-1.5s0-.5-.1-.8c0-.2-.3-.4-.6-.6-.3-.2-.6-.4-1.1-.5-.5-.2-1.1-.3-1.8-.5-.9-.2-1.6-.4-2.3-.7-.7-.2-1.2-.5-1.7-.9-.5-.4-.8-.8-1-1.3-.2-.5-.4-1.2-.4-1.9s.1-1.3.4-1.9c.3-.6.6-1.1,1.1-1.5.5-.4,1.1-.7,1.7-1,.7-.2,1.4-.3,2.2-.3,1.2,0,2.2.2,3.2.5.9.3,1.8.8,2.6,1.5l-1.5,2.1c-.7-.5-1.5-.9-2.2-1.2s-1.4-.4-2.2-.4-1.5.2-1.9.6c-.5.4-.7.8-.7,1.4s0,.6.2.8h0Z"/>
  <path class="st2" d="M108.3,39.6h-2.8v-13.4h-5.1v-2.6h13v2.6h-5.1v13.4Z"/>
  <path class="st2" d="M119.3,23.6v16h-2.8v-16h2.8Z"/>
  <path class="st2" d="M134.8,23.6h2.8v16h-2.4l-8.8-11.4v11.4h-2.8v-16h2.6l8.6,11.1v-11.1h0Z"/>
  <path class="st2" d="M154.7,38.3c-.5.3-1,.6-1.6.8-.6.2-1.2.4-1.8.5-.6.1-1.3.2-2,.2-1.3,0-2.4-.2-3.4-.6-1-.4-1.9-1-2.6-1.7-.7-.7-1.3-1.6-1.7-2.6-.4-1-.6-2.1-.6-3.3s.2-2.2.6-3.2c.4-1,1-1.9,1.7-2.6.7-.8,1.6-1.4,2.6-1.8,1-.4,2.1-.7,3.3-.7s1.3,0,1.9.1c.6,0,1.1.2,1.6.4.5.2,1,.4,1.4.7.4.3.9.6,1.3.9l-1.8,2.1c-.3-.3-.6-.5-.9-.7-.3-.2-.7-.4-1-.5-.4-.1-.7-.3-1.2-.3-.4,0-.9-.1-1.4-.1-.7,0-1.4.1-2,.4-.6.3-1.2.7-1.6,1.2-.5.5-.8,1.1-1.1,1.8-.3.7-.4,1.4-.4,2.2s.1,1.6.4,2.3c.3.7.6,1.3,1.1,1.8.5.5,1.1.9,1.7,1.2.7.3,1.4.4,2.2.4s1.5-.1,2.1-.3,1.2-.5,1.7-.9v-3h-4.1v-2.5h6.8v6.7c-.4.3-.8.7-1.3,1Z"/>
  <path class="st2" d="M63.8,14.7h0l-5-7.5v11.4h-2.8V2.7h3l4.9,7.6,4.9-7.6h3v16h-2.8V7.2l-5.1,7.6Z"/>
  <path class="st2" d="M95.2,2.7h2.8v13.5h8.4v2.5h-11.2V2.7Z"/>
  <path class="st2" d="M123.3,13.8c-.4,1-1,1.8-1.8,2.6-.8.7-1.7,1.3-2.7,1.7-1,.4-2.2.6-3.4.6h-6V2.7h6c1.3,0,2.4.2,3.4.6,1,.4,1.9,1,2.7,1.7.8.7,1.3,1.6,1.8,2.5.4,1,.6,2,.6,3.2s-.2,2.2-.6,3.2ZM120.5,8.5c-.3-.7-.6-1.2-1.1-1.7-.5-.5-1.1-.9-1.8-1.1-.7-.3-1.5-.4-2.3-.4h-3.2v10.9h3.2c.8,0,1.6-.1,2.3-.4.7-.3,1.3-.6,1.8-1.1.5-.5.9-1.1,1.1-1.7.3-.7.4-1.4.4-2.2s-.1-1.5-.4-2.2Z"/>
  <path class="st1" d="M85.1,2.8h-1.2s.8,1.9,0,4.3h1.2c-.9-2.3,0-4.3,0-4.3Z"/>
  <path class="st3" d="M85.6.4c.6.6.6,1.5,0,2.1-.6.6-1.5.6-2.1,0-.6-.6-.6-1.5,0-2.1.6-.6,1.5-.6,2.1,0Z"/>
  <path class="st0" d="M85.4.6c.5.5.5,1.3,0,1.7-.5.5-1.3.5-1.7,0-.5-.5-.5-1.3,0-1.7.5-.5,1.3-.5,1.7,0Z"/>
  <path class="st3" d="M85,1c.3.3.3.7,0,.9-.3.3-.7.3-.9,0-.3-.3-.3-.7,0-.9.3-.3.7-.3.9,0Z"/>
  <path class="st1" d="M93.9,11.5v-1.4s-2.4.9-5.2,0v1.4c2.9-1.1,5.2,0,5.2,0Z"/>
  <path class="st3" d="M96.8,12.1c-.7.7-1.9.7-2.6,0s-.7-1.9,0-2.6c.7-.7,1.9-.7,2.6,0,.7.7.7,1.9,0,2.6Z"/>
  <path class="st0" d="M96.6,11.9c-.6.6-1.6.6-2.1,0-.6-.6-.6-1.6,0-2.1.6-.6,1.6-.6,2.1,0,.6.6.6,1.6,0,2.1Z"/>
  <path class="st3" d="M96.1,11.4c-.3.3-.8.3-1.2,0-.3-.3-.3-.8,0-1.2.3-.3.8-.3,1.2,0,.3.3.3.8,0,1.2Z"/>
  <path class="st3" d="M91.8,7.3c-.4-.2-.9,0-1.1.5,0,.1,0,.2,0,.3-.1.1-1,.8-2.2.9,0,0,.2.5.3.6,1-.9,2.1-.9,2.2-.9,0,0,.2.1.3.2.4.2.9,0,1.1-.5.2-.4,0-.9-.5-1.1Z"/>
  <path class="st3" d="M75.9,8.2c.2.6.9.8,1.4.6.1,0,.3-.2.4-.3.3,0,1.6.1,2.9,1.2,0,0,.3-.7.3-.8-1.7,0-2.8-1-2.9-1.2,0-.1,0-.3,0-.4-.2-.6-.9-.8-1.4-.6-.6.2-.8.9-.6,1.4h0Z"/>
  <path class="st3" d="M81.5,4.6c-.1.3,0,.7.3.8,0,0,.2,0,.3,0,0,.1.6.7.7,1.7,0,0,.4-.2.5-.2-.7-.7-.7-1.6-.7-1.7,0,0,0-.1.1-.2.1-.3,0-.7-.3-.8-.3-.1-.7,0-.8.3Z"/>
  <path class="st3" d="M87.2,2.9c-.5.2-.7.7-.5,1.2,0,.1.1.2.2.3,0,.2-.1,1.4-1,2.4,0,0,.6.2.7.3,0-1.5.9-2.4,1-2.5.1,0,.2,0,.3,0,.5-.2.7-.7.5-1.2-.2-.5-.7-.7-1.2-.5Z"/>
  <path class="st3" d="M93.4,13.7c-.2-.6-.9-.8-1.4-.6-.1,0-.3.2-.4.3-.3,0-1.6-.1-2.9-1.2,0,0-.3.7-.3.8,1.7,0,2.8,1,2.9,1.2,0,.1,0,.3,0,.4.2.6.9.8,1.4.6.6-.2.8-.9.6-1.4h0Z"/>
  <path class="st3" d="M88.3,18.1c.2-.4,0-.9-.5-1.1-.1,0-.2,0-.3,0-.1-.1-.8-.9-.9-2.2,0,0-.5.2-.6.3.9,1,.9,2.1.9,2.2,0,0-.1.2-.2.3-.2.4,0,.9.5,1.1.4.2.9,0,1.1-.5Z"/>
  <path class="st3" d="M81.7,20.7c.7-.3,1-1,.7-1.7,0-.2-.2-.3-.3-.4,0-.3.2-1.9,1.4-3.4,0,0-.8-.3-.9-.4,0,2-1.2,3.3-1.4,3.4-.2,0-.3,0-.5,0-.7.3-1,1-.7,1.7.3.7,1,1,1.7.7Z"/>
  <path class="st3" d="M77.7,14.5c.4.2.8,0,1-.4,0-.1,0-.2,0-.3.1-.1.9-.7,2-.8,0,0-.2-.5-.2-.6-.9.8-1.9.9-2,.9,0,0-.1-.1-.2-.2-.4-.2-.8,0-1,.4-.2.4,0,.8.4,1Z"/>
  <path class="st1" d="M84.1,20.6h1.5s-1-2.6,0-5.7h-1.5c1.2,3.1,0,5.7,0,5.7Z"/>
  <path class="st3" d="M83.5,23.7c-.8-.8-.8-2,0-2.8s2-.8,2.8,0,.8,2,0,2.8c-.8.8-2,.8-2.8,0Z"/>
  <path class="st0" d="M83.7,23.5c-.6-.6-.6-1.7,0-2.3.6-.6,1.7-.6,2.3,0,.6.6.6,1.7,0,2.3-.6.6-1.7.6-2.3,0Z"/>
  <path class="st3" d="M84.3,23c-.3-.3-.3-.9,0-1.3.3-.3.9-.3,1.3,0,.3.3.3.9,0,1.3-.3.3-.9.3-1.3,0Z"/>
  <path class="st1" d="M75.6,10.5v1.4s2.4-.9,5.2,0v-1.4c-2.8,1.1-5.2,0-5.2,0Z"/>
  <path class="st3" d="M74,13c1,0,1.8-.8,1.8-1.8s-.8-1.8-1.8-1.8-1.8.8-1.8,1.8.8,1.8,1.8,1.8Z"/>
  <path class="st0" d="M72.9,10.1c.6-.6,1.5-.6,2.1,0,.6.6.6,1.5,0,2.1-.6.6-1.5.6-2.1,0-.6-.6-.6-1.5,0-2.1Z"/>
  <path class="st3" d="M74,12c.5,0,.8-.4.8-.8s-.4-.8-.8-.8-.8.4-.8.8.4.8.8.8Z"/>
  <path class="st1" d="M91.7,4.9l-1-1s-1,2.4-3.8,3.8c0,0,.9.9,1,1,1.3-2.9,3.8-3.8,3.8-3.8Z"/>
  <path class="st1" d="M77.8,3.1l-1.2,1.2s2.9,1.2,4.5,4.5l1.2-1.2c-3.4-1.5-4.5-4.5-4.5-4.5Z"/>
  <path class="st1" d="M82.2,14.2l-.8-.8s-.9,2-3.1,3.1c0,0,.8.8.8.8,1.1-2.4,3.1-3.1,3.1-3.1Z"/>
  <path class="st3" d="M84.7,15.4c2.5,0,4.4-2,4.4-4.4s-2-4.4-4.4-4.4-4.4,2-4.4,4.4,2,4.4,4.4,4.4Z"/>
  <path class="st0" d="M84.7,14.7c2,0,3.7-1.7,3.7-3.7s-1.7-3.7-3.7-3.7-3.7,1.7-3.7,3.7,1.7,3.7,3.7,3.7Z"/>
  <path class="st3" d="M84.7,13c1.1,0,2-.9,2-2s-.9-2-2-2-2,.9-2,2,.9,2,2,2Z"/>
  <path class="st3" d="M94.2,3.2c0,1-.8,1.9-1.9,1.9s-1.9-.8-1.9-1.9.8-1.9,1.9-1.9,1.9.8,1.9,1.9Z"/>
  <path class="st0" d="M92.3,4.8c.9,0,1.6-.7,1.6-1.6s-.7-1.6-1.6-1.6-1.6.7-1.6,1.6.7,1.6,1.6,1.6Z"/>
  <path class="st3" d="M93.1,3.2c0,.5-.4.8-.8.8s-.8-.4-.8-.8.4-.8.8-.8.8.4.8.8Z"/>
  <path class="st1" d="M90,17l.8-.8s-1.8-.8-2.9-2.9c0,0-.7.7-.8.8,2.2,1,2.9,2.9,2.9,2.9Z"/>
  <path class="st3" d="M75.8,4.6c1.2,0,2.2-1,2.2-2.2s-1-2.2-2.2-2.2-2.2,1-2.2,2.2,1,2.2,2.2,2.2Z"/>
  <path class="st0" d="M77.7,2.4c0,1-.8,1.9-1.9,1.9s-1.9-.8-1.9-1.9.8-1.9,1.9-1.9,1.9.8,1.9,1.9Z"/>
  <path class="st3" d="M75.8,3.4c.6,0,1-.5,1-1s-.5-1-1-1-1,.5-1,1,.5,1,1,1Z"/>
  <path class="st3" d="M77.6,19.6c.9,0,1.6-.7,1.6-1.6s-.7-1.6-1.6-1.6-1.6.7-1.6,1.6.7,1.6,1.6,1.6Z"/>
  <path class="st0" d="M78.9,17.9c0,.8-.6,1.4-1.4,1.4s-1.4-.6-1.4-1.4.6-1.4,1.4-1.4,1.4.6,1.4,1.4Z"/>
  <path class="st3" d="M78.3,17.9c0,.4-.3.7-.7.7s-.7-.3-.7-.7.3-.7.7-.7.7.3.7.7Z"/>
  <path class="st3" d="M91.3,18.9c.8,0,1.4-.6,1.4-1.4s-.6-1.4-1.4-1.4-1.4.6-1.4,1.4.6,1.4,1.4,1.4Z"/>
  <path class="st0" d="M92.5,17.5c0,.7-.5,1.2-1.2,1.2s-1.2-.5-1.2-1.2.5-1.2,1.2-1.2,1.2.5,1.2,1.2Z"/>
  <path class="st3" d="M91.3,18.1c.4,0,.6-.3.6-.6s-.3-.6-.6-.6-.6.3-.6.6.3.6.6.6Z"/>
  <path class="st0" d="M30.3,26.3l.4,1.6c.1.5,0,1-.4,1.4-2.5,2.3-5.7,4-9.5,5-3.3.9-6.3,1.1-9,.4-2.7-.7-5-2-7-4-2-2-3.4-4.3-4.2-7C-.6,19.4,0,15.3,2.2,11.5c2.3-3.8,5.6-6.4,10.2-7.7,2.9-.8,6.3-1,10.2-.6.6,0,1,.5,1.2,1l.4,1.5c.3,1-.6,1.9-1.6,1.7-3.2-.5-6.1-.4-8.9.4-3.4,1-5.9,2.8-7.6,5.6-1.6,2.8-2,5.8-1.1,9,.9,3.3,2.8,5.6,5.6,7.1,2.8,1.5,5.9,1.7,9.4.8,2.9-.8,5.6-2.4,8-4.6.8-.7,2-.4,2.3.6Z"/>
  <path class="st0" d="M37.3,4.5l2.7-.8c.5-.1,1,.3,1,.8l-3.9,31.8c0,.3-.3.6-.5.6-.3,0-.6,0-.8-.3L15.4,11.8c-.3-.4-.1-1.1.4-1.2l2.7-.8c.3,0,.6,0,.8.3l13.4,16.6c.4.5,1.3.3,1.3-.4l2.7-21.1c0-.3.3-.6.5-.6h0Z"/>
</svg>